<svg width="70" height="60" viewBox="0 0 70 60" fill="none" xmlns="http://www.w3.org/2000/svg">
<path d="M7.90294 6.46026L7.90348 6.45976C14.5562 0.224606 24.9988 0.568856 31.2287 7.23243L31.2375 7.24181L31.2464 7.25108L33.5567 9.65943L34.9999 11.1639L36.4431 9.65953L38.7538 7.25118L38.7627 7.24185L38.7715 7.2324C45.0011 0.568918 55.444 0.224536 62.0974 6.45982L62.0979 6.46026L62.7749 7.09436C62.775 7.09443 62.7751 7.0945 62.7752 7.09457C62.7753 7.09473 62.7755 7.09488 62.7757 7.09503C69.4127 13.3177 69.773 23.7442 63.5871 30.4108L35 57.2564L6.41277 30.4108C0.226717 23.744 0.587293 13.317 7.22578 7.09445L7.90294 6.46026Z" fill="#F71216" stroke="black" stroke-width="4"/>
</svg>
